# MagicaVoxel @ Ephtracy

# group
o 

# material
mtllib HORSE.mtl
usemtl palette

# normals
vn -1 0 0
vn 1 0 0
vn 0 0 1
vn 0 0 -1
vn 0 -1 0
vn 0 1 0

# texcoords
vt 0.00195313 0.5
vt 0.177734 0.5
vt 0.201172 0.5
vt 0.369141 0.5
vt 0.416016 0.5
vt 0.419922 0.5
vt 0.958984 0.5
vt 0.962891 0.5
vt 0.990234 0.5
vt 0.994141 0.5

# verts
v 0 3 -0.5
v 0 3 -0.6
v 0 3.2 -0.5
v 0 3.2 -0.6
v 0.1 2.9 -0.5
v 0.1 2.9 -0.6
v 0.1 3 -0.5
v 0.1 3 -0.6
v 0.2 2.7 -0.5
v 0.2 2.7 -0.6
v 0.2 2.9 -0.5
v 0.2 2.9 -0.6
v 0.6 2.2 -0.1
v 0.6 2.2 -1
v 0.6 2.7 -0.5
v 0.6 2.7 -0.6
v 0.6 2.8 -0.5
v 0.6 2.8 -0.6
v 0.6 3 -0.1
v 0.6 3 -1
v 0.7 1.3 -0.1
v 0.7 1.3 -0.3
v 0.7 1.3 -0.8
v 0.7 1.3 -1
v 0.7 1.5 -0.1
v 0.7 1.5 -0.3
v 0.7 1.5 -0.8
v 0.7 1.5 -1
v 0.7 2.2 -0.1
v 0.7 2.2 -0.3
v 0.7 2.2 -0.8
v 0.7 2.2 -1
v 1.5 3 -0.2
v 1.5 3 -0.9
v 1.5 4 -0.2
v 1.5 4 -0.9
v 1.6 3 -0.1
v 1.6 3 -0.2
v 1.6 3 -0.9
v 1.6 3 -1
v 1.6 3.9 -0.1
v 1.6 3.9 -0.2
v 1.6 3.9 -0.9
v 1.6 3.9 -1
v 1.9 3.5 0
v 1.9 3.5 -0.1
v 1.9 3.5 -1
v 1.9 3.5 -1.1
v 1.9 3.8 0
v 1.9 3.8 -0.1
v 1.9 3.8 -1
v 1.9 3.8 -1.1
v 2.1 1.3 -0.1
v 2.1 1.3 -0.3
v 2.1 1.3 -0.8
v 2.1 1.3 -1
v 2.1 1.5 -0.1
v 2.1 1.5 -0.3
v 2.1 1.5 -0.8
v 2.1 1.5 -1
v 2.1 2.2 -0.1
v 2.1 2.2 -0.3
v 2.1 2.2 -0.8
v 2.1 2.2 -1
v 0.3 3.1 -0.5
v 0.3 3.1 -0.6
v 0.3 3.2 -0.5
v 0.3 3.2 -0.6
v 0.4 2.8 -0.5
v 0.4 2.8 -0.6
v 0.4 3.1 -0.5
v 0.4 3.1 -0.6
v 0.9 1.3 -0.1
v 0.9 1.3 -0.3
v 0.9 1.3 -0.8
v 0.9 1.3 -1
v 0.9 1.5 -0.1
v 0.9 1.5 -0.3
v 0.9 1.5 -0.8
v 0.9 1.5 -1
v 0.9 2.2 -0.1
v 0.9 2.2 -0.3
v 0.9 2.2 -0.8
v 0.9 2.2 -1
v 2.2 3.5 0
v 2.2 3.5 -0.1
v 2.2 3.5 -1
v 2.2 3.5 -1.1
v 2.2 3.8 0
v 2.2 3.8 -0.1
v 2.2 3.8 -1
v 2.2 3.8 -1.1
v 2.3 1.3 -0.1
v 2.3 1.3 -0.3
v 2.3 1.3 -0.8
v 2.3 1.3 -1
v 2.3 1.5 -0.1
v 2.3 1.5 -0.3
v 2.3 1.5 -0.8
v 2.3 1.5 -1
v 2.3 2.2 -0.1
v 2.3 2.2 -0.3
v 2.3 2.2 -0.8
v 2.3 2.2 -1
v 2.4 2.2 -0.1
v 2.4 2.2 -1
v 2.4 3.1 -0.3
v 2.4 3.1 -0.8
v 2.4 3.6 -0.3
v 2.4 3.6 -0.8
v 2.4 3.8 -0.2
v 2.4 3.8 -0.9
v 2.4 3.9 -0.1
v 2.4 3.9 -0.2
v 2.4 3.9 -0.9
v 2.4 3.9 -1
v 2.5 3.2 -0.3
v 2.5 3.2 -0.4
v 2.5 3.2 -0.7
v 2.5 3.2 -0.8
v 2.5 3.3 -0.3
v 2.5 3.3 -0.4
v 2.5 3.3 -0.7
v 2.5 3.3 -0.8
v 2.5 3.8 -0.2
v 2.5 3.8 -0.9
v 2.5 4 -0.2
v 2.5 4 -0.9
v 2.7 3.1 -0.3
v 2.7 3.1 -0.8
v 2.7 3.2 -0.3
v 2.7 3.2 -0.8
v 2.8 3.3 -0.3
v 2.8 3.3 -0.8
v 2.8 3.4 -0.4
v 2.8 3.4 -0.5
v 2.8 3.4 -0.6
v 2.8 3.4 -0.7
v 2.8 3.5 -0.4
v 2.8 3.5 -0.5
v 2.8 3.5 -0.6
v 2.8 3.5 -0.7
v 2.8 3.6 -0.3
v 2.8 3.6 -0.8
v 1.9 3.5 0
v 1.9 3.8 0
v 2 3.6 0
v 2 3.7 0
v 2.1 3.6 0
v 2.1 3.7 0
v 2.2 3.5 0
v 2.2 3.8 0
v 0.6 2.2 -0.1
v 0.6 3 -0.1
v 0.7 1.3 -0.1
v 0.7 1.5 -0.1
v 0.7 2.2 -0.1
v 0.9 1.3 -0.1
v 0.9 1.5 -0.1
v 0.9 2.2 -0.1
v 1.6 3 -0.1
v 1.6 3.9 -0.1
v 1.9 3.5 -0.1
v 1.9 3.8 -0.1
v 2.1 1.3 -0.1
v 2.1 1.5 -0.1
v 2.1 2.2 -0.1
v 2.2 3.5 -0.1
v 2.2 3.8 -0.1
v 2.3 1.3 -0.1
v 2.3 1.5 -0.1
v 2.3 2.2 -0.1
v 2.4 2.2 -0.1
v 2.4 3.9 -0.1
v 1.5 3 -0.2
v 1.5 4 -0.2
v 1.6 3 -0.2
v 1.6 3.9 -0.2
v 2.4 3.8 -0.2
v 2.4 3.9 -0.2
v 2.5 3.8 -0.2
v 2.5 4 -0.2
v 2.4 3.1 -0.3
v 2.4 3.6 -0.3
v 2.5 3.2 -0.3
v 2.5 3.3 -0.3
v 2.7 3.1 -0.3
v 2.7 3.2 -0.3
v 2.8 3.3 -0.3
v 2.8 3.6 -0.3
v 0 3 -0.5
v 0 3.2 -0.5
v 0.1 2.9 -0.5
v 0.1 3 -0.5
v 0.2 2.7 -0.5
v 0.2 2.9 -0.5
v 0.3 3.1 -0.5
v 0.3 3.2 -0.5
v 0.4 2.8 -0.5
v 0.4 3.1 -0.5
v 0.6 2.7 -0.5
v 0.6 2.8 -0.5
v 0.7 1.3 -0.8
v 0.7 1.5 -0.8
v 0.7 2.2 -0.8
v 0.9 1.3 -0.8
v 0.9 1.5 -0.8
v 0.9 2.2 -0.8
v 2.1 1.3 -0.8
v 2.1 1.5 -0.8
v 2.1 2.2 -0.8
v 2.3 1.3 -0.8
v 2.3 1.5 -0.8
v 2.3 2.2 -0.8
v 0.7 1.3 -0.3
v 0.7 1.5 -0.3
v 0.7 2.2 -0.3
v 0.9 1.3 -0.3
v 0.9 1.5 -0.3
v 0.9 2.2 -0.3
v 2.1 1.3 -0.3
v 2.1 1.5 -0.3
v 2.1 2.2 -0.3
v 2.3 1.3 -0.3
v 2.3 1.5 -0.3
v 2.3 2.2 -0.3
v 0 3 -0.6
v 0 3.2 -0.6
v 0.1 2.9 -0.6
v 0.1 3 -0.6
v 0.2 2.7 -0.6
v 0.2 2.9 -0.6
v 0.3 3.1 -0.6
v 0.3 3.2 -0.6
v 0.4 2.8 -0.6
v 0.4 3.1 -0.6
v 0.6 2.7 -0.6
v 0.6 2.8 -0.6
v 2.4 3.1 -0.8
v 2.4 3.6 -0.8
v 2.5 3.2 -0.8
v 2.5 3.3 -0.8
v 2.7 3.1 -0.8
v 2.7 3.2 -0.8
v 2.8 3.3 -0.8
v 2.8 3.6 -0.8
v 1.5 3 -0.9
v 1.5 4 -0.9
v 1.6 3 -0.9
v 1.6 3.9 -0.9
v 2.4 3.8 -0.9
v 2.4 3.9 -0.9
v 2.5 3.8 -0.9
v 2.5 4 -0.9
v 0.6 2.2 -1
v 0.6 3 -1
v 0.7 1.3 -1
v 0.7 1.5 -1
v 0.7 2.2 -1
v 0.9 1.3 -1
v 0.9 1.5 -1
v 0.9 2.2 -1
v 1.6 3 -1
v 1.6 3.9 -1
v 1.9 3.5 -1
v 1.9 3.8 -1
v 2.1 1.3 -1
v 2.1 1.5 -1
v 2.1 2.2 -1
v 2.2 3.5 -1
v 2.2 3.8 -1
v 2.3 1.3 -1
v 2.3 1.5 -1
v 2.3 2.2 -1
v 2.4 2.2 -1
v 2.4 3.9 -1
v 1.9 3.5 -1.1
v 1.9 3.8 -1.1
v 2 3.6 -1.1
v 2 3.7 -1.1
v 2.1 3.6 -1.1
v 2.1 3.7 -1.1
v 2.2 3.5 -1.1
v 2.2 3.8 -1.1
v 0.7 1.3 -0.1
v 0.9 1.3 -0.1
v 2.1 1.3 -0.1
v 2.3 1.3 -0.1
v 0.7 1.3 -0.3
v 0.9 1.3 -0.3
v 2.1 1.3 -0.3
v 2.3 1.3 -0.3
v 0.7 1.3 -0.8
v 0.9 1.3 -0.8
v 2.1 1.3 -0.8
v 2.3 1.3 -0.8
v 0.7 1.3 -1
v 0.9 1.3 -1
v 2.1 1.3 -1
v 2.3 1.3 -1
v 0.6 2.2 -0.1
v 0.7 2.2 -0.1
v 0.9 2.2 -0.1
v 2.1 2.2 -0.1
v 2.3 2.2 -0.1
v 2.4 2.2 -0.1
v 0.7 2.2 -0.3
v 0.9 2.2 -0.3
v 2.1 2.2 -0.3
v 2.3 2.2 -0.3
v 0.7 2.2 -0.8
v 0.9 2.2 -0.8
v 2.1 2.2 -0.8
v 2.3 2.2 -0.8
v 0.6 2.2 -1
v 0.7 2.2 -1
v 0.9 2.2 -1
v 2.1 2.2 -1
v 2.3 2.2 -1
v 2.4 2.2 -1
v 0.2 2.7 -0.5
v 0.6 2.7 -0.5
v 0.2 2.7 -0.6
v 0.6 2.7 -0.6
v 0.1 2.9 -0.5
v 0.2 2.9 -0.5
v 0.1 2.9 -0.6
v 0.2 2.9 -0.6
v 0 3 -0.5
v 0.1 3 -0.5
v 0 3 -0.6
v 0.1 3 -0.6
v 2.4 3.1 -0.3
v 2.7 3.1 -0.3
v 2.4 3.1 -0.8
v 2.7 3.1 -0.8
v 2.5 3.3 -0.3
v 2.8 3.3 -0.3
v 2.5 3.3 -0.4
v 2.5 3.3 -0.7
v 2.5 3.3 -0.8
v 2.8 3.3 -0.8
v 1.9 3.5 0
v 2.2 3.5 0
v 1.9 3.5 -0.1
v 2.2 3.5 -0.1
v 1.9 3.5 -1
v 2.2 3.5 -1
v 1.9 3.5 -1.1
v 2.2 3.5 -1.1
v 2.4 3.8 -0.2
v 2.5 3.8 -0.2
v 2.4 3.8 -0.9
v 2.5 3.8 -0.9
v 0.4 2.8 -0.5
v 0.6 2.8 -0.5
v 0.4 2.8 -0.6
v 0.6 2.8 -0.6
v 0.6 3 -0.1
v 1.6 3 -0.1
v 1.5 3 -0.2
v 1.6 3 -0.2
v 1.5 3 -0.9
v 1.6 3 -0.9
v 0.6 3 -1
v 1.6 3 -1
v 0.3 3.1 -0.5
v 0.4 3.1 -0.5
v 0.3 3.1 -0.6
v 0.4 3.1 -0.6
v 2.5 3.2 -0.3
v 2.7 3.2 -0.3
v 2.5 3.2 -0.4
v 0 3.2 -0.5
v 0.3 3.2 -0.5
v 0 3.2 -0.6
v 0.3 3.2 -0.6
v 2.5 3.2 -0.7
v 2.5 3.2 -0.8
v 2.7 3.2 -0.8
v 2.4 3.6 -0.3
v 2.8 3.6 -0.3
v 2.4 3.6 -0.8
v 2.8 3.6 -0.8
v 1.9 3.8 0
v 2.2 3.8 0
v 1.9 3.8 -0.1
v 2.2 3.8 -0.1
v 1.9 3.8 -1
v 2.2 3.8 -1
v 1.9 3.8 -1.1
v 2.2 3.8 -1.1
v 1.6 3.9 -0.1
v 2.4 3.9 -0.1
v 1.6 3.9 -0.2
v 2.4 3.9 -0.2
v 1.6 3.9 -0.9
v 2.4 3.9 -0.9
v 1.6 3.9 -1
v 2.4 3.9 -1
v 1.5 4 -0.2
v 2.5 4 -0.2
v 1.5 4 -0.9
v 2.5 4 -0.9

# faces
f 3/4/1 2/4/1 1/4/1
f 4/4/1 2/4/1 3/4/1
f 7/4/1 6/4/1 5/4/1
f 8/4/1 6/4/1 7/4/1
f 11/4/1 10/4/1 9/4/1
f 12/4/1 10/4/1 11/4/1
f 15/2/1 14/2/1 13/2/1
f 16/2/1 14/2/1 15/2/1
f 17/2/1 15/2/1 13/2/1
f 18/2/1 14/2/1 16/2/1
f 19/2/1 17/2/1 13/2/1
f 19/2/1 18/2/1 17/2/1
f 20/2/1 14/2/1 18/2/1
f 20/2/1 18/2/1 19/2/1
f 25/4/1 22/4/1 21/4/1
f 26/4/1 22/4/1 25/4/1
f 27/4/1 24/4/1 23/4/1
f 28/4/1 24/4/1 27/4/1
f 29/2/1 26/2/1 25/2/1
f 30/2/1 26/2/1 29/2/1
f 31/2/1 28/2/1 27/2/1
f 32/2/1 28/2/1 31/2/1
f 35/4/1 34/4/1 33/4/1
f 36/4/1 34/4/1 35/4/1
f 41/2/1 38/2/1 37/2/1
f 42/2/1 38/2/1 41/2/1
f 43/2/1 40/2/1 39/2/1
f 44/2/1 40/2/1 43/2/1
f 49/7/1 46/7/1 45/7/1
f 50/7/1 46/7/1 49/7/1
f 51/7/1 48/7/1 47/7/1
f 52/7/1 48/7/1 51/7/1
f 57/4/1 54/4/1 53/4/1
f 58/4/1 54/4/1 57/4/1
f 59/4/1 56/4/1 55/4/1
f 60/4/1 56/4/1 59/4/1
f 61/2/1 58/2/1 57/2/1
f 62/2/1 58/2/1 61/2/1
f 63/2/1 60/2/1 59/2/1
f 64/2/1 60/2/1 63/2/1
f 65/4/2 66/4/2 67/4/2
f 67/4/2 66/4/2 68/4/2
f 69/4/2 70/4/2 71/4/2
f 71/4/2 70/4/2 72/4/2
f 73/4/2 74/4/2 77/4/2
f 77/4/2 74/4/2 78/4/2
f 75/4/2 76/4/2 79/4/2
f 79/4/2 76/4/2 80/4/2
f 77/2/2 78/2/2 81/2/2
f 81/2/2 78/2/2 82/2/2
f 79/2/2 80/2/2 83/2/2
f 83/2/2 80/2/2 84/2/2
f 85/7/2 86/7/2 89/7/2
f 89/7/2 86/7/2 90/7/2
f 87/7/2 88/7/2 91/7/2
f 91/7/2 88/7/2 92/7/2
f 93/4/2 94/4/2 97/4/2
f 97/4/2 94/4/2 98/4/2
f 95/4/2 96/4/2 99/4/2
f 99/4/2 96/4/2 100/4/2
f 97/2/2 98/2/2 101/2/2
f 101/2/2 98/2/2 102/2/2
f 99/2/2 100/2/2 103/2/2
f 103/2/2 100/2/2 104/2/2
f 105/2/2 106/2/2 107/2/2
f 107/2/2 106/2/2 108/2/2
f 105/2/2 107/2/2 109/2/2
f 108/2/2 106/2/2 110/2/2
f 105/2/2 109/2/2 111/2/2
f 109/2/2 110/2/2 111/2/2
f 110/2/2 106/2/2 112/2/2
f 111/2/2 110/2/2 112/2/2
f 105/2/2 111/2/2 113/2/2
f 113/2/2 111/2/2 114/2/2
f 112/2/2 106/2/2 115/2/2
f 115/2/2 106/2/2 116/2/2
f 117/4/2 118/4/2 121/4/2
f 118/5/2 119/5/2 122/5/2
f 121/4/2 118/4/2 122/4/2
f 119/4/2 120/4/2 123/4/2
f 122/5/2 119/5/2 123/5/2
f 123/4/2 120/4/2 124/4/2
f 125/4/2 126/4/2 127/4/2
f 127/4/2 126/4/2 128/4/2
f 129/4/2 130/4/2 131/4/2
f 131/4/2 130/4/2 132/4/2
f 133/4/2 134/4/2 135/4/2
f 135/4/2 134/4/2 136/4/2
f 136/4/2 134/4/2 137/4/2
f 137/4/2 134/4/2 138/4/2
f 133/4/2 135/4/2 139/4/2
f 135/9/2 136/9/2 139/9/2
f 136/4/2 137/4/2 140/4/2
f 139/9/2 136/9/2 140/9/2
f 137/9/2 138/9/2 141/9/2
f 140/4/2 137/4/2 141/4/2
f 138/4/2 134/4/2 142/4/2
f 141/9/2 138/9/2 142/9/2
f 140/4/2 141/4/2 143/4/2
f 139/4/2 140/4/2 143/4/2
f 141/4/2 142/4/2 143/4/2
f 133/4/2 139/4/2 143/4/2
f 142/4/2 134/4/2 144/4/2
f 143/4/2 142/4/2 144/4/2
f 147/7/3 146/7/3 145/7/3
f 148/7/3 146/7/3 147/7/3
f 149/7/3 147/7/3 145/7/3
f 149/4/3 148/4/3 147/4/3
f 150/7/3 146/7/3 148/7/3
f 150/4/3 148/4/3 149/4/3
f 151/7/3 149/7/3 145/7/3
f 151/7/3 150/7/3 149/7/3
f 152/7/3 146/7/3 150/7/3
f 152/7/3 150/7/3 151/7/3
f 157/2/3 154/2/3 153/2/3
f 158/4/3 156/4/3 155/4/3
f 159/2/3 157/2/3 156/2/3
f 159/4/3 156/4/3 158/4/3
f 160/2/3 154/2/3 157/2/3
f 160/2/3 157/2/3 159/2/3
f 161/2/3 154/2/3 160/2/3
f 163/2/3 162/2/3 161/2/3
f 164/2/3 162/2/3 163/2/3
f 167/2/3 161/2/3 160/2/3
f 167/2/3 163/2/3 161/2/3
f 168/2/3 163/2/3 167/2/3
f 168/2/3 167/2/3 166/2/3
f 169/2/3 162/2/3 164/2/3
f 170/4/3 166/4/3 165/4/3
f 171/2/3 169/2/3 168/2/3
f 171/4/3 166/4/3 170/4/3
f 171/2/3 168/2/3 166/2/3
f 172/2/3 169/2/3 171/2/3
f 173/2/3 169/2/3 172/2/3
f 174/2/3 162/2/3 169/2/3
f 174/2/3 169/2/3 173/2/3
f 177/4/3 176/4/3 175/4/3
f 178/4/3 176/4/3 177/4/3
f 180/4/3 176/4/3 178/4/3
f 181/4/3 180/4/3 179/4/3
f 182/4/3 176/4/3 180/4/3
f 182/4/3 180/4/3 181/4/3
f 185/4/3 184/4/3 183/4/3
f 186/4/3 184/4/3 185/4/3
f 187/4/3 185/4/3 183/4/3
f 188/4/3 185/4/3 187/4/3
f 189/4/3 184/4/3 186/4/3
f 190/4/3 184/4/3 189/4/3
f 194/4/3 192/4/3 191/4/3
f 196/4/3 194/4/3 193/4/3
f 197/4/3 192/4/3 194/4/3
f 197/4/3 196/4/3 195/4/3
f 197/4/3 194/4/3 196/4/3
f 198/4/3 192/4/3 197/4/3
f 199/4/3 197/4/3 195/4/3
f 200/4/3 197/4/3 199/4/3
f 201/4/3 199/4/3 195/4/3
f 202/4/3 199/4/3 201/4/3
f 206/4/3 204/4/3 203/4/3
f 207/2/3 205/2/3 204/2/3
f 207/4/3 204/4/3 206/4/3
f 208/2/3 205/2/3 207/2/3
f 212/4/3 210/4/3 209/4/3
f 213/2/3 211/2/3 210/2/3
f 213/4/3 210/4/3 212/4/3
f 214/2/3 211/2/3 213/2/3
f 215/4/4 216/4/4 218/4/4
f 216/2/4 217/2/4 219/2/4
f 218/4/4 216/4/4 219/4/4
f 219/2/4 217/2/4 220/2/4
f 221/4/4 222/4/4 224/4/4
f 222/2/4 223/2/4 225/2/4
f 224/4/4 222/4/4 225/4/4
f 225/2/4 223/2/4 226/2/4
f 227/4/4 228/4/4 230/4/4
f 229/4/4 230/4/4 232/4/4
f 230/4/4 228/4/4 233/4/4
f 231/4/4 232/4/4 233/4/4
f 232/4/4 230/4/4 233/4/4
f 233/4/4 228/4/4 234/4/4
f 231/4/4 233/4/4 235/4/4
f 235/4/4 233/4/4 236/4/4
f 231/4/4 235/4/4 237/4/4
f 237/4/4 235/4/4 238/4/4
f 239/4/4 240/4/4 241/4/4
f 241/4/4 240/4/4 242/4/4
f 239/4/4 241/4/4 243/4/4
f 243/4/4 241/4/4 244/4/4
f 242/4/4 240/4/4 245/4/4
f 245/4/4 240/4/4 246/4/4
f 247/4/4 248/4/4 249/4/4
f 249/4/4 248/4/4 250/4/4
f 250/4/4 248/4/4 252/4/4
f 251/4/4 252/4/4 253/4/4
f 252/4/4 248/4/4 254/4/4
f 253/4/4 252/4/4 254/4/4
f 255/2/4 256/2/4 259/2/4
f 257/4/4 258/4/4 260/4/4
f 258/2/4 259/2/4 261/2/4
f 260/4/4 258/4/4 261/4/4
f 259/2/4 256/2/4 262/2/4
f 261/2/4 259/2/4 262/2/4
f 262/2/4 256/2/4 263/2/4
f 263/2/4 264/2/4 265/2/4
f 265/2/4 264/2/4 266/2/4
f 262/2/4 263/2/4 269/2/4
f 263/2/4 265/2/4 269/2/4
f 269/2/4 265/2/4 270/2/4
f 268/2/4 269/2/4 270/2/4
f 266/2/4 264/2/4 271/2/4
f 267/4/4 268/4/4 272/4/4
f 270/2/4 271/2/4 273/2/4
f 272/4/4 268/4/4 273/4/4
f 268/2/4 270/2/4 273/2/4
f 273/2/4 271/2/4 274/2/4
f 274/2/4 271/2/4 275/2/4
f 271/2/4 264/2/4 276/2/4
f 275/2/4 271/2/4 276/2/4
f 277/7/4 278/7/4 279/7/4
f 279/7/4 278/7/4 280/7/4
f 277/7/4 279/7/4 281/7/4
f 279/4/4 280/4/4 281/4/4
f 280/7/4 278/7/4 282/7/4
f 281/4/4 280/4/4 282/4/4
f 277/7/4 281/7/4 283/7/4
f 281/7/4 282/7/4 283/7/4
f 282/7/4 278/7/4 284/7/4
f 283/7/4 282/7/4 284/7/4
f 289/4/5 286/4/5 285/4/5
f 290/4/5 286/4/5 289/4/5
f 291/4/5 288/4/5 287/4/5
f 292/4/5 288/4/5 291/4/5
f 297/4/5 294/4/5 293/4/5
f 298/4/5 294/4/5 297/4/5
f 299/4/5 296/4/5 295/4/5
f 300/4/5 296/4/5 299/4/5
f 307/2/5 302/2/5 301/2/5
f 308/2/5 304/2/5 303/2/5
f 309/2/5 304/2/5 308/2/5
f 310/2/5 306/2/5 305/2/5
f 311/2/5 309/2/5 308/2/5
f 311/2/5 310/2/5 309/2/5
f 311/2/5 307/2/5 301/2/5
f 311/2/5 308/2/5 307/2/5
f 312/2/5 310/2/5 311/2/5
f 313/2/5 310/2/5 312/2/5
f 314/2/5 306/2/5 310/2/5
f 314/2/5 310/2/5 313/2/5
f 315/2/5 311/2/5 301/2/5
f 316/2/5 311/2/5 315/2/5
f 317/2/5 313/2/5 312/2/5
f 318/2/5 313/2/5 317/2/5
f 319/2/5 306/2/5 314/2/5
f 320/2/5 306/2/5 319/2/5
f 323/4/5 322/4/5 321/4/5
f 324/4/5 322/4/5 323/4/5
f 327/4/5 326/4/5 325/4/5
f 328/4/5 326/4/5 327/4/5
f 331/4/5 330/4/5 329/4/5
f 332/4/5 330/4/5 331/4/5
f 335/4/5 334/4/5 333/4/5
f 336/4/5 334/4/5 335/4/5
f 339/4/5 338/4/5 337/4/5
f 340/4/5 338/4/5 339/4/5
f 341/4/5 338/4/5 340/4/5
f 342/4/5 338/4/5 341/4/5
f 345/7/5 344/7/5 343/7/5
f 346/7/5 344/7/5 345/7/5
f 349/7/5 348/7/5 347/7/5
f 350/7/5 348/7/5 349/7/5
f 353/4/5 352/4/5 351/4/5
f 354/4/5 352/4/5 353/4/5
f 355/4/6 356/4/6 357/4/6
f 357/4/6 356/4/6 358/4/6
f 359/2/6 360/2/6 361/2/6
f 361/2/6 360/2/6 362/2/6
f 359/2/6 361/2/6 363/2/6
f 359/2/6 363/2/6 365/2/6
f 363/2/6 364/2/6 365/2/6
f 365/2/6 364/2/6 366/2/6
f 367/4/6 368/4/6 369/4/6
f 369/4/6 368/4/6 370/4/6
f 371/4/6 372/4/6 373/4/6
f 374/4/6 375/4/6 376/4/6
f 376/4/6 375/4/6 377/4/6
f 373/4/6 372/4/6 378/4/6
f 378/4/6 372/4/6 379/4/6
f 379/4/6 372/4/6 380/4/6
f 381/4/6 382/4/6 383/4/6
f 383/4/6 382/4/6 384/4/6
f 385/7/6 386/7/6 387/7/6
f 387/7/6 386/7/6 388/7/6
f 389/7/6 390/7/6 391/7/6
f 391/7/6 390/7/6 392/7/6
f 393/2/6 394/2/6 395/2/6
f 395/2/6 394/2/6 396/2/6
f 397/2/6 398/2/6 399/2/6
f 399/2/6 398/2/6 400/2/6
f 401/4/6 402/4/6 403/4/6
f 403/4/6 402/4/6 404/4/6
